<?xml version="1.0" encoding="UTF-8"?>
<svg width="12px" height="12px" viewBox="0 0 12 12" version="1.1" xmlns="http://www.w3.org/2000/svg" xmlns:xlink="http://www.w3.org/1999/xlink">
    <!-- Generator: Sketch 50.2 (55047) - http://www.bohemiancoding.com/sketch -->
    <title>12-图片删除</title>
    <desc>Created with Sketch.</desc>
    <defs></defs>
    <g id="控件" stroke="none" stroke-width="1" fill="none" fill-rule="evenodd">
        <g id="12-图片删除" fill="#F47272" fill-rule="nonzero">
            <g id="关闭(1)">
                <path d="M6,0 C2.66666666,0 0,2.66666666 0,6 C0,9.33333334 2.66666666,12 6,12 C9.33333334,12 12,9.33333334 12,6 C12,2.66666666 9.33333334,1.896631e-16 6,0 Z M8.83287431,8.48983739 C8.72176321,8.65650406 8.44398543,8.71205962 8.27731876,8.6009485 L6.1106521,6.43428184 L3.94398543,8.6009485 L3.83287432,8.71205961 C3.66620765,8.82317071 3.38842988,8.76761517 3.27731877,8.6009485 C3.16620766,8.43428183 3.22176321,8.15650405 3.38842988,8.04539295 L5.55509654,5.87872627 L3.38842988,3.71205961 C3.27731877,3.54539295 3.27731877,3.37872628 3.38842988,3.26761517 C3.49954099,3.1009485 3.77731876,3.04539294 3.94398543,3.15650406 L6.1106521,5.32317072 L8.27731876,3.15650406 C8.38842987,3.04539295 8.6106521,3.04539295 8.72176321,3.15650406 C8.88842987,3.26761517 8.94398543,3.54539295 8.83287431,3.71205961 L6.66620765,5.87872627 L8.83287431,8.04539295 C8.94398542,8.15650405 8.94398542,8.37872628 8.83287431,8.48983739 Z" id="Shape"></path>
            </g>
        </g>
    </g>
</svg>