<?xml version="1.0" encoding="UTF-8"?>
<svg width="16px" height="16px" viewBox="0 0 16 16" version="1.1" xmlns="http://www.w3.org/2000/svg" xmlns:xlink="http://www.w3.org/1999/xlink">
    <!-- Generator: Sketch 50.2 (55047) - http://www.bohemiancoding.com/sketch -->
    <title>16-搜索</title>
    <desc>Created with Sketch.</desc>
    <defs></defs>
    <g id="控件" stroke="none" stroke-width="1" fill="none" fill-rule="evenodd">
        <g id="16-搜索" fill="#999999" fill-rule="nonzero">
            <g id="搜索">
                <path d="M7.28390447,14.6542056 C5.42305296,14.6542056 3.56220145,13.9630322 2.12668744,12.5275182 C-0.691173416,9.65649013 -0.691173416,5.03094496 2.12668744,2.15991693 C4.99771547,-0.711111111 9.62326064,-0.711111111 12.4411215,2.15991693 C15.3121495,5.03094496 15.3121495,9.65649013 12.4411215,12.474351 C11.0587747,13.909865 9.14475597,14.6542056 7.28390447,14.6542056 Z M7.28390447,1.30924195 C5.74205607,1.30924195 4.20020768,1.894081 3.0305296,3.06375909 C0.691173416,5.40311526 0.691173416,9.28431983 3.0305296,11.623676 C5.36988577,13.9630322 9.25109034,13.9630322 11.5904465,11.623676 C13.9298027,9.28431983 13.9298027,5.40311526 11.5904465,3.06375909 C10.4207684,1.894081 8.82575286,1.30924195 7.28390447,1.30924195 Z" id="Shape"></path>
                <path d="M14.5146417,15.7175493 L11.8562825,13.05919 C11.5372793,12.7401869 11.5372793,12.2085151 11.8562825,11.8895119 C12.1752856,11.5705088 12.7069574,11.5705088 13.0259605,11.8895119 L15.6843198,14.5478712 C16.0033229,14.8668744 16.0033229,15.3985462 15.6843198,15.7175493 C15.3653167,16.0897196 14.8336449,16.0897196 14.5146417,15.7175493 Z" id="Shape"></path>
            </g>
        </g>
    </g>
</svg>