<?xml version="1.0" encoding="UTF-8"?>
<svg width="14px" height="14px" viewBox="0 0 14 14" version="1.1" xmlns="http://www.w3.org/2000/svg" xmlns:xlink="http://www.w3.org/1999/xlink">
    <!-- Generator: Sketch 50.2 (55047) - http://www.bohemiancoding.com/sketch -->
    <title>16选择日期</title>
    <desc>Created with Sketch.</desc>
    <defs></defs>
    <g id="控件" stroke="none" stroke-width="1" fill="none" fill-rule="evenodd">
        <g id="16选择日期" fill="#999999" fill-rule="nonzero">
            <g id="选择日期">
                <path d="M9.27298541,11.7636364 L11.1931031,11.7636364 L11.1931031,10.7363636 L9.27298541,10.7363636 L9.27298541,11.7636364 Z M5.86045398,11.7636364 L7.80787191,11.7636364 L7.80787191,10.7363636 L5.86045398,10.7363636 L5.86045398,11.7636364 Z M2.4206223,11.7636364 L4.3862404,11.7636364 L4.3862404,10.7363636 L2.4206223,10.7363636 L2.4206223,11.7636364 Z M9.27298541,9.74545455 L11.1931031,9.74545455 L11.1931031,8.77272727 L9.27298541,8.77272727 L9.27298541,9.74545455 Z M5.86045398,9.74545455 L7.80787191,9.74545455 L7.80787191,8.77272727 L5.86045398,8.77272727 L5.86045398,9.74545455 Z M2.4206223,9.74545455 L4.3862404,9.74545455 L4.3862404,8.77272727 L2.4206223,8.77272727 L2.4206223,9.74545455 Z M9.27298541,7.74545455 L11.1931031,7.74545455 L11.1931031,6.75454545 L9.27298541,6.75454545 L9.27298541,7.74545455 Z M5.86045398,7.74545455 L7.80787191,7.74545455 L7.80787191,6.75454545 L5.86045398,6.75454545 L5.86045398,7.74545455 Z M2.4206223,7.74545455 L4.3862404,7.74545455 L4.3862404,6.75454545 L2.4206223,6.75454545 L2.4206223,7.74545455 Z M12.5763158,1.3 L11.9211098,1.3 L11.9211098,1.1 C11.9211098,0.5 11.4388054,-1.37158329e-10 10.8564,0 L10.8381998,0 C10.2557945,0 9.77349002,0.490909091 9.77349002,1.1 L9.77349002,1.3 L3.87663571,1.3 L3.87663571,1.1 C3.87663571,0.5 3.39433126,-1.37158329e-10 2.8119259,0 L2.79372573,0 C2.21132037,1.06288949e-15 1.72901593,0.490909091 1.72901593,1.1 L1.72901593,1.3 L1.06470981,1.3 C0.482304442,1.3 0,1.79090909 0,2.4 L0,12.9 C0,13.5 0.482304442,14 1.06470981,14 L12.5763158,14 C13.1587212,14 13.6410256,13.5090909 13.6410256,12.9 L13.6410256,2.4 C13.6410256,1.8 13.1678213,1.3 12.5763158,1.3 Z M10.201194,1.1 C10.201194,0.736363636 10.4832966,0.445454545 10.8381998,0.445454545 L10.8564,0.445454545 C11.2113033,0.445454545 11.4934059,0.745454545 11.4934059,1.1 L11.4934059,3.05454545 C11.4934059,3.41818182 11.2022032,3.71818182 10.8564,3.71818182 L10.8381998,3.71818182 C10.4832966,3.71818182 10.201194,3.41818182 10.201194,3.05454545 L10.201194,1.1 Z M2.15671986,1.1 C2.15671986,0.736363636 2.43882246,0.445454545 2.79372573,0.445454545 L2.8119259,0.445454545 C3.16682917,0.445454545 3.44893177,0.745454545 3.44893177,1.1 L3.44893177,3.05454545 C3.44893177,3.41818182 3.15772908,3.71818182 2.8119259,3.71818182 L2.79372573,3.71818182 C2.43882246,3.71818182 2.15671986,3.41818182 2.15671986,3.05454545 L2.15671986,1.1 Z M12.5763158,13.1181818 L1.07380989,13.1181818 C0.955508801,13.1181818 0.864507962,13.0181818 0.864507963,12.9 L0.864507963,5.18181818 L12.7947178,5.18181818 L12.7947178,12.9 C12.7947178,13.0181818 12.6946169,13.1181818 12.5763158,13.1181818 Z" id="Shape"></path>
            </g>
        </g>
    </g>
</svg>