<?xml version="1.0" encoding="UTF-8"?>
<svg width="20px" height="20px" viewBox="0 0 20 20" version="1.1" xmlns="http://www.w3.org/2000/svg" xmlns:xlink="http://www.w3.org/1999/xlink">
    <!-- Generator: Sketch 50.2 (55047) - http://www.bohemiancoding.com/sketch -->
    <title>20-图片</title>
    <desc>Created with Sketch.</desc>
    <defs></defs>
    <g id="控件" stroke="none" stroke-width="1" fill="none" fill-rule="evenodd">
        <g id="20-图片" fill-rule="nonzero">
            <g id="图片" transform="translate(2.000000, 0.000000)">
                <path d="M0.962689076,0 C0.722977191,0 0.467284514,0.1 0.290881152,0.3 C0.115707083,0.5 0.00384153661,0.75 0.00384153661,1 L0.00384153661,19 C0.00384153661,19.25 0.0997262905,19.5166667 0.291495798,19.7 C0.48265066,19.9 0.722977191,20 0.962689076,20 L15.0251717,20 C15.2654982,20 15.5211909,19.9 15.6969796,19.7 C15.8887491,19.5 15.9846339,19.25 15.9846339,19 L15.9846339,5.66666667 L10.5511645,0 L0.962689076,0 Z" id="Shape" fill="#FFC655"></path>
                <path d="M15.9846339,5.66666667 L11.510012,5.66666667 C11.2696855,5.66666667 11.0139928,5.56666667 10.8382041,5.36666667 C10.6556073,5.18782495 10.5513262,4.93351587 10.5511645,4.66666667 L10.5511645,0 L15.9846339,5.66666667 Z" id="Shape" fill="#FFE5BB"></path>
                <path d="M12.9157071,14.0333333 L10.918108,10.8 C10.857277,10.7030241 10.7551524,10.6462587 10.6470492,10.6493333 C10.5403609,10.6533239 10.4408232,10.7085262 10.3753758,10.8 L9.30466267,12.5333333 L6.90815846,8.48333333 C6.84423529,8.384 6.74835054,8.33333333 6.63648499,8.33333333 C6.52461945,8.33333333 6.42873469,8.4 6.36481152,8.48333333 L3.07215366,14.0333333 C3.00829387,14.1336499 3.00829387,14.2663501 3.07215366,14.3666667 C3.13607683,14.4833333 3.23196158,14.5333333 3.34382713,14.5333333 L12.6446483,14.5333333 C12.7565138,14.5333333 12.8677647,14.4666667 12.9323025,14.3666667 C12.9796303,14.25 12.9796303,14.1166667 12.9157071,14.0333333 Z M10.199587,7.91666667 C10.199587,8.21466667 10.3520192,8.48933333 10.5991068,8.638 C10.8461945,8.78733333 11.1504442,8.78733333 11.3981465,8.638 C11.6452341,8.48933333 11.7970516,8.21466667 11.7970516,7.91666667 C11.7970516,7.61866667 11.6452341,7.344 11.3981465,7.19533333 C11.1496059,7.04594392 10.8476474,7.04594392 10.5991068,7.19533333 C10.3546274,7.33877228 10.2015279,7.61519368 10.199587,7.91666667 Z" id="Shape" fill="#FFFFFF"></path>
            </g>
        </g>
    </g>
</svg>