<?xml version="1.0" encoding="UTF-8"?>
<svg width="20px" height="20px" viewBox="0 0 20 20" version="1.1" xmlns="http://www.w3.org/2000/svg" xmlns:xlink="http://www.w3.org/1999/xlink">
    <!-- Generator: Sketch 50.2 (55047) - http://www.bohemiancoding.com/sketch -->
    <title>20-关闭</title>
    <desc>Created with Sketch.</desc>
    <defs></defs>
    <g id="控件" stroke="none" stroke-width="1" fill="none" fill-rule="evenodd">
        <g id="20-关闭" fill="#FFFFFF" fill-rule="nonzero">
            <g id="关闭">
                <path d="M18.8602171,19.9939881 C18.5594416,19.9942885 18.2709412,19.8747401 18.0585333,19.6617874 L0.338099114,1.94158018 C-0.104608248,1.49887281 -0.104608248,0.780919941 0.338099114,0.338099114 C0.780919921,-0.104608248 1.49875935,-0.104608248 1.94158018,0.338099114 L19.6619009,18.0584198 C20.1046082,18.5012406 20.1046082,19.2190801 19.6619009,19.6619009 C19.4494672,19.8748013 19.1609737,19.9943061 18.8602171,19.9939881 Z" id="Shape"></path>
                <path d="M1.13989638,19.9939881 C0.83911595,19.9943136 0.550606252,19.8747614 0.338212579,19.6617874 C-0.104494783,19.2190801 -0.104494783,18.5011272 0.338212579,18.0583064 L18.0584198,0.338099114 C18.5012406,-0.104608248 19.2190801,-0.104608248 19.6619009,0.338099114 C20.1047217,0.780806476 20.1046082,1.49875935 19.6619009,1.94158018 L1.94158018,19.6617874 C1.72917228,19.8747401 1.44067183,19.9942885 1.13989638,19.9939881 Z" id="Shape"></path>
            </g>
        </g>
    </g>
</svg>