<?xml version="1.0" encoding="UTF-8"?>
<svg width="20px" height="20px" viewBox="0 0 20 20" version="1.1" xmlns="http://www.w3.org/2000/svg" xmlns:xlink="http://www.w3.org/1999/xlink">
    <!-- Generator: Sketch 50.2 (55047) - http://www.bohemiancoding.com/sketch -->
    <title>20-文件夹</title>
    <desc>Created with Sketch.</desc>
    <defs></defs>
    <g id="控件" stroke="none" stroke-width="1" fill="none" fill-rule="evenodd">
        <g id="20-文件夹" fill-rule="nonzero">
            <g id="文件夹" transform="translate(0.000000, 2.000000)">
                <path d="M9.49914104,1.50198448 L16.2467419,1.50198448 C16.7965464,1.50198448 17.2463865,1.95182453 17.2463865,2.50162905 L17.2463865,3.75118476 C17.2463865,4.30098928 16.7965464,4.75082933 16.2467419,4.75082933 L9.49914104,4.75082933 C8.94933653,4.75082933 8.49949648,4.30098928 8.49949648,3.75118476 L8.49949648,2.50162905 C8.49949648,1.95182453 8.94933653,1.50198448 9.49914104,1.50198448 Z" id="Shape" fill="#C08900"></path>
                <path d="M17.9961199,16.9964753 L2.00180676,16.9964753 C0.902197725,16.9964753 0.00251762336,16.0967952 0.00251762336,14.9971862 L0.00251762336,2.00180676 C0.00251762336,0.902197725 0.902197742,0.00251762336 2.00180676,0.00251762336 L7.74976304,0.00251762336 C9.12427432,0.377384333 8.84937208,1.07713553 9.74905219,2.00180676 L10.37383,3.00145133 L17.9961199,3.00145133 C19.0957289,3.00145133 19.995409,3.90113145 19.995409,5.00074048 L19.995409,14.9971862 C19.995409,16.0967952 19.0957289,16.9964753 17.9961199,16.9964753 Z" id="Shape" fill="#F1BA2F"></path>
            </g>
        </g>
    </g>
</svg>