<?xml version="1.0" encoding="UTF-8"?>
<svg width="30px" height="30px" viewBox="0 0 30 30" version="1.1" xmlns="http://www.w3.org/2000/svg" xmlns:xlink="http://www.w3.org/1999/xlink">
    <!-- Generator: Sketch 50.2 (55047) - http://www.bohemiancoding.com/sketch -->
    <title>30-图片</title>
    <desc>Created with Sketch.</desc>
    <defs></defs>
    <g id="30-图片" stroke="none" stroke-width="1" fill="none" fill-rule="evenodd">
        <g id="20-图片">
            <g id="图片" transform="translate(3.000000, 0.000000)">
                <path d="M1.44403361,0 C1.08446579,0 0.700926771,0.15 0.436321729,0.45 C0.173560624,0.75 0.00576230492,1.125 0.00576230492,1.5 L0.00576230492,28.5 C0.00576230492,28.875 0.149589436,29.275 0.437243697,29.55 C0.72397599,29.85 1.08446579,30 1.44403361,30 L22.5377575,30 C22.8982473,30 23.2817863,29.85 23.5454694,29.55 C23.8331236,29.25 23.9769508,28.875 23.9769508,28.5 L23.9769508,8.5 L15.8267467,0 L1.44403361,0 Z" id="Shape" fill="#FFC655" fill-rule="nonzero"></path>
                <path d="M23.9769508,8.5 L17.265018,8.5 C16.9045282,8.5 16.5209892,8.35 16.2573061,8.05 C15.983411,7.78173742 15.8269893,7.40027381 15.8267467,7 L15.8267467,0 L23.9769508,8.5 Z" id="Shape" fill="#FFE5BB" fill-rule="nonzero"></path>
                <path d="M19.3735606,21.05 L16.3771621,16.2 C16.2859156,16.0545362 16.1327286,15.969388 15.9705738,15.974 C15.8105413,15.9799858 15.6612349,16.0627892 15.5630636,16.2 L13.956994,18.8 L10.3622377,12.725 C10.2663529,12.576 10.1225258,12.5 9.95472749,12.5 C9.78692917,12.5 9.64310204,12.6 9.54721729,12.725 L4.60823049,21.05 C4.51244081,21.2004748 4.51244081,21.3995252 4.60823049,21.55 C4.70411525,21.725 4.84794238,21.8 5.0157407,21.8 L18.9669724,21.8 C19.1347707,21.8 19.3016471,21.7 19.3984538,21.55 C19.4694454,21.375 19.4694454,21.175 19.3735606,21.05 Z M15.2993806,11.875 C15.2993806,12.322 15.5280288,12.734 15.8986603,12.957 C16.2692917,13.181 16.7256663,13.181 17.0972197,12.957 C17.4678511,12.734 17.6955774,12.322 17.6955774,11.875 C17.6955774,11.428 17.4678511,11.016 17.0972197,10.793 C16.7244088,10.5689159 16.2714712,10.5689159 15.8986603,10.793 C15.5319412,11.0081584 15.3022918,11.4227905 15.2993806,11.875 Z" id="Shape" fill="#FFFFFF" fill-rule="nonzero"></path>
            </g>
        </g>
    </g>
</svg>