<?xml version="1.0" encoding="UTF-8"?>
<svg width="30px" height="30px" viewBox="0 0 30 30" version="1.1" xmlns="http://www.w3.org/2000/svg" xmlns:xlink="http://www.w3.org/1999/xlink">
    <!-- Generator: Sketch 50.2 (55047) - http://www.bohemiancoding.com/sketch -->
    <title>30-左双箭头</title>
    <desc>Created with Sketch.</desc>
    <defs></defs>
    <g id="控件" stroke="none" stroke-width="1" fill="none" fill-rule="evenodd">
        <g id="30-左双箭头">
            <g id="Group-9">
                <rect id="Rectangle-14-Copy" fill="#6EB2EB" x="0" y="0" width="30" height="30" rx="4"></rect>
                <g id="左双箭头" transform="translate(9.000000, 9.000000)" fill="#FFFFFF">
                    <g id="右双箭头-copy" transform="translate(6.500000, 6.000000) scale(-1, 1) translate(-6.500000, -6.000000) ">
                        <g id="展开(1)" transform="translate(6.641026, 6.000000) scale(-1, 1) translate(-6.641026, -6.000000) translate(0.641026, 0.000000)" fill-rule="nonzero">
                            <path d="M6.5105641,6 L11.4426667,1.06871795 C11.6895148,0.828620955 11.6953882,0.43400372 11.4557949,0.186666667 C11.2086822,-0.053148724 10.8140688,-0.0476424901 10.5737436,0.198974359 L5.22235897,5.54789744 C5.1597235,5.61151819 5.1110919,5.68754 5.07958974,5.77107692 C5.06810256,5.79815385 5.06810256,5.82851282 5.06071795,5.85723077 C5.05087179,5.904 5.03528205,5.95076923 5.03528205,6 C5.03528205,6.04923077 5.05005128,6.09517949 5.06071795,6.14276923 C5.06810256,6.17066667 5.06810256,6.20184615 5.07958974,6.22892308 C5.11087124,6.31257047 5.1595307,6.38863583 5.22235897,6.45210256 L10.5729231,11.8018462 C10.6881249,11.920599 10.845797,11.988703 11.0112286,11.9911652 C11.1766603,11.9936275 11.3362894,11.9302461 11.4549744,11.8149744 C11.6944743,11.5679167 11.6885993,11.1735573 11.4418462,10.9337436 L6.5105641,6 Z" id="Shape"></path>
                            <path d="M1.48410256,6 L6.41620513,1.06871795 C6.66305327,0.828620955 6.66892664,0.43400372 6.42933333,0.186666667 C6.31082907,0.0709290735 6.15114586,0.00709613525 5.98551433,0.00925119246 C5.81988279,0.0114062497 5.66191444,0.0793722007 5.54646154,0.198153846 L0.196717949,5.54707692 C0.134082477,5.61069768 0.0854508767,5.68671949 0.0539487179,5.77025641 C0.0424615385,5.79733333 0.0424615385,5.82769231 0.0358974359,5.85723077 C0.0252307692,5.904 0.00964102564,5.95076923 0.00964102564,6 C0.00964102564,6.04923077 0.0252307692,6.09517949 0.0358974359,6.14194872 C0.0432820513,6.17066667 0.0432820513,6.20102564 0.0539487179,6.22892308 C0.0852302193,6.31257047 0.133889676,6.38863583 0.196717949,6.45210256 L5.54646154,11.8010256 C5.66158413,11.9201395 5.81936991,11.9885526 5.98500349,11.9911695 C6.15063708,11.9937864 6.31050531,11.930392 6.42933333,11.8149744 C6.66914872,11.5678617 6.66364249,11.1732483 6.41702564,10.9329231 L1.48410256,6 Z" id="Shape"></path>
                        </g>
                    </g>
                </g>
            </g>
        </g>
    </g>
</svg>