<?xml version="1.0" encoding="UTF-8"?>
<svg width="30px" height="30px" viewBox="0 0 30 30" version="1.1" xmlns="http://www.w3.org/2000/svg" xmlns:xlink="http://www.w3.org/1999/xlink">
    <!-- Generator: Sketch 50.2 (55047) - http://www.bohemiancoding.com/sketch -->
    <title>30-右单箭头</title>
    <desc>Created with Sketch.</desc>
    <defs></defs>
    <g id="控件" stroke="none" stroke-width="1" fill="none" fill-rule="evenodd">
        <g id="30-右单箭头">
            <g id="Group-7">
                <rect id="Rectangle-14-Copy-2" fill="#6EB2EB" x="0" y="0" width="30" height="30" rx="4"></rect>
                <g id="右单箭头" transform="translate(9.000000, 9.000000)" fill="#FFFFFF">
                    <g id="展开(1)" transform="translate(6.141026, 6.000000) scale(-1, 1) translate(-6.141026, -6.000000) translate(2.641026, 0.000000)">
                        <path d="M1.47446154,5.99080165 L6.4065641,1.0595196 C6.65341225,0.819422609 6.65928562,0.424805374 6.41969231,0.177468321 C6.30118804,0.061730728 6.14150484,-0.00210221031 5.9758733,5.28468943e-05 C5.81024176,0.0022079041 5.65227341,0.0701738552 5.53682051,0.188955501 L0.187076923,5.53787858 C0.124441451,5.60149933 0.0758098511,5.67752115 0.0443076923,5.76105806 C0.0328205128,5.78813499 0.0328205128,5.81849396 0.0262564103,5.84803242 C0.0155897436,5.89480165 0,5.94157089 0,5.99080165 C0,6.04003242 0.0155897436,6.08598114 0.0262564103,6.13275037 C0.0336410256,6.16146832 0.0336410256,6.1918273 0.0443076923,6.21972473 C0.0755891936,6.30337212 0.12424865,6.37943748 0.187076923,6.44290422 L5.53682051,11.7918273 C5.65194311,11.9109412 5.80972888,11.9793542 5.97536247,11.9819711 C6.14099606,11.984588 6.30086429,11.9211937 6.41969231,11.805776 C6.6595077,11.5586634 6.65400146,11.1640499 6.40738462,10.9237247 L1.47446154,5.99080165 Z" id="Shape" fill-rule="nonzero"></path>
                    </g>
                </g>
            </g>
        </g>
    </g>
</svg>