<?xml version="1.0" encoding="UTF-8"?>
<svg width="46px" height="46px" viewBox="0 0 46 46" version="1.1" xmlns="http://www.w3.org/2000/svg" xmlns:xlink="http://www.w3.org/1999/xlink">
    <!-- Generator: Sketch 50.2 (55047) - http://www.bohemiancoding.com/sketch -->
    <title>46-待办事项</title>
    <desc>Created with Sketch.</desc>
    <defs></defs>
    <g id="控件" stroke="none" stroke-width="1" fill="none" fill-rule="evenodd">
        <g id="46-待办事项" fill-rule="nonzero">
            <g id="待办事项" transform="translate(2.000000, 0.000000)">
                <path d="M38.1831535,4.67130729 L3.38845533,4.67130729 C1.54006505,4.67130729 0.0413702218,6.16351426 0.0413702218,8.00390285 L0.0413702218,42.6479747 C0.0413702218,44.4883633 1.54006505,45.9805702 3.38845533,45.9805702 L38.1831535,45.9805702 C40.0315438,45.9805702 41.5302386,44.4883633 41.5302386,42.6479747 L41.5302386,8.00390285 C41.5302386,6.16351426 40.0315438,4.67130729 38.1831535,4.67130729 Z" id="Shape" fill="#6EB2EB"></path>
                <path d="M32.8378087,39.9868722 L8.73380021,39.9868722 C7.26008363,39.9868722 6.06112777,38.7931067 6.06112777,37.3257698 L6.06112777,38.6687561 C6.06112777,40.1360929 7.26008363,41.3298585 8.73380021,41.3298585 L32.8378087,41.3298585 C34.3115252,41.3298585 35.5104811,40.1360929 35.5104811,38.6687561 L35.5104811,37.3257698 C35.5104811,38.7931067 34.3115252,39.9868722 32.8378087,39.9868722 Z" id="Shape" fill="#1C6FBC"></path>
                <path d="M32.8378087,7.33240971 L8.73380021,7.33240971 C7.26008363,7.33240971 6.06112777,8.52617529 6.06112777,9.99351214 L6.06112777,37.3257698 C6.06112777,38.7931067 7.26008363,39.9868722 8.73380021,39.9868722 L32.8627869,39.9868722 C34.3365035,39.9868722 35.5354593,38.7931067 35.5354593,37.3257698 L35.5354593,9.99351214 C35.5104811,8.52617529 34.3115252,7.33240971 32.8378087,7.33240971 Z" id="Shape" fill="#FFFFFF"></path>
                <path d="M30.1651362,2.68169799 L24.1204004,2.68169799 C23.9455527,1.18949102 22.6966403,0.0205955649 21.147989,0.0205955649 C19.5993377,0.0205955649 18.3504253,1.18949102 18.1755776,2.68169799 L11.4064727,2.68169799 C10.6571252,2.68169799 10.0576473,3.27858078 10.0576473,4.02468427 L10.0576473,8.05364308 C10.0576473,8.79974657 10.6571252,9.39662936 11.4064727,9.39662936 L30.1651362,9.39662936 C30.9144836,9.39662936 31.5139616,8.79974657 31.5139616,8.05364308 L31.5139616,4.02468427 C31.4889833,3.27858078 30.8895054,2.68169799 30.1651362,2.68169799 Z M21.1230108,4.67130729 C20.1987387,4.67130729 19.4494682,3.92528036 19.4494682,3.0050095 C19.4494682,2.08473865 20.1987387,1.33871172 21.1230108,1.33871172 C22.0472828,1.33871172 22.7965533,2.08473865 22.7965533,3.0050095 C22.7965533,3.92528036 22.0472828,4.67130729 21.1230108,4.67130729 Z" id="Shape" fill="#CACACA"></path>
                <path d="M30.1651362,8.00390285 L11.4064727,8.00390285 C10.6571252,8.00390285 10.0576473,7.40702006 10.0576473,6.66091658 L10.0576473,8.00390285 C10.0576473,8.75000634 10.6571252,9.34688912 11.4064727,9.34688912 L30.1651362,9.34688912 C30.9144836,9.34688912 31.5139616,8.75000634 31.5139616,8.00390285 L31.5139616,6.66091658 C31.4889833,7.40702006 30.8895054,8.00390285 30.1651362,8.00390285 Z" id="Shape" fill="#B3B3B3"></path>
                <path d="M13.9542539,14.246302 L13.6295366,14.0970813 C13.6295366,14.0970813 13.3797542,13.8981204 13.1799282,14.1219514 L11.6062986,16.2359113 C11.5063856,16.385132 11.3814944,16.2607814 11.3814944,16.2607814 L10.6821035,15.6887687 C10.6821035,15.6887687 10.4822775,15.5644182 10.3573863,15.8379894 L10.0826256,16.2110412 C10.0826256,16.2110412 10.0076908,16.3602619 10.232495,16.4846125 L11.1816684,17.2058458 C11.1816684,17.2058458 11.3315379,17.3301964 11.5063856,17.3301964 L11.7811464,17.3301964 C11.7811464,17.3301964 12.1058636,17.3301964 12.2557331,17.0566251 L14.0291886,14.5198733 C14.0291886,14.4950032 14.2040363,14.3706526 13.9542539,14.246302 Z" id="Shape" fill="#1C6FBC"></path>
                <path d="M10.0826256,23.9953875 L14.1041233,23.9953875 L14.1041233,19.9912988 L10.0826256,19.9912988 L10.0826256,23.9953875 Z M16.7767958,22.6524013 L31.4889833,22.6524013 L31.4889833,21.309415 L16.7767958,21.309415 L16.7767958,22.6524013 Z M10.0826256,29.9890855 L14.1041233,29.9890855 L14.1041233,25.9849968 L10.0826256,25.9849968 L10.0826256,29.9890855 Z M16.7767958,28.6460993 L31.4889833,28.6460993 L31.4889833,27.303113 L16.7767958,27.303113 L16.7767958,28.6460993 Z M10.0826256,35.9827835 L14.1041233,35.9827835 L14.1041233,31.9786948 L10.0826256,31.9786948 L10.0826256,35.9827835 Z M16.7767958,34.6646674 L31.4889833,34.6646674 L31.4889833,33.3216811 L16.7767958,33.3216811 L16.7767958,34.6646674 Z M16.7767958,15.3405871 L16.7767958,16.6835734 L31.4889833,16.6835734 L31.4889833,15.3405871 L16.7767958,15.3405871 Z" id="Shape" fill="#D5D5D5"></path>
            </g>
        </g>
    </g>
</svg>