<?xml version="1.0" encoding="utf-8"?>
<!-- Generator: Adobe Illustrator 22.1.0, SVG Export Plug-In . SVG Version: 6.00 Build 0)  -->
<svg version="1.1" id="图层_1" xmlns="http://www.w3.org/2000/svg" xmlns:xlink="http://www.w3.org/1999/xlink" x="0px" y="0px"
	 viewBox="0 0 200 200" style="enable-background:new 0 0 200 200;" xml:space="preserve">
<style type="text/css">
	.st0{fill:#8CC152;}
	.st1{fill:#FFFFFF;}
</style>
<path class="st0" d="M115,176.5h78.6c3.4-0.4,6.1-3.1,6.5-6.5c0-0.2,0-0.5,0-0.8V30.7c0-3.8-2.9-6.9-6.7-7.3H115V176.5z"/>
<path class="st1" d="M151.8,44.2h32.1c0.6,0,1,0.4,1,1v13c0,0.6-0.4,1-1,1h-32.1c-0.6,0-1-0.4-1-1v-13
	C150.8,44.6,151.3,44.2,151.8,44.2z M151.8,68.2h32.1c0.6,0,1,0.4,1,1v13c0,0.6-0.4,1-1,1h-32.1c-0.6,0-1-0.4-1-1v-13
	C150.8,68.7,151.3,68.2,151.8,68.2z M151.8,92.4h32.1c0.6,0,1,0.4,1,1v13c0,0.6-0.4,1-1,1h-32.1c-0.6,0-1-0.4-1-1v-13
	C150.8,92.8,151.3,92.4,151.8,92.4z M151.8,116.5h32.1c0.6,0,1,0.4,1,1v13c0,0.6-0.4,1-1,1h-32.1c-0.6,0-1-0.4-1-1v-13
	C150.8,117,151.3,116.5,151.8,116.5z M151.8,140.6h32.1c0.6,0,1,0.4,1,1v13c0,0.6-0.4,1-1,1h-32.1c-0.6,0-1-0.4-1-1v-13
	C150.8,141.1,151.3,140.6,151.8,140.6z M109.5,44.2h32.1c0.6,0,1,0.4,1,1v13c0,0.6-0.4,1-1,1h-32.1c-0.6,0-1-0.4-1-1v-13
	C108.5,44.6,108.9,44.2,109.5,44.2z M109.5,68.2h32.1c0.6,0,1,0.4,1,1v13c0,0.6-0.4,1-1,1h-32.1c-0.6,0-1-0.4-1-1v-13
	C108.5,68.7,108.9,68.2,109.5,68.2z M109.5,92.4h32.1c0.6,0,1,0.4,1,1v13c0,0.6-0.4,1-1,1h-32.1c-0.6,0-1-0.4-1-1v-13
	C108.5,92.8,108.9,92.4,109.5,92.4z M109.5,116.5h32.1c0.6,0,1,0.4,1,1v13c0,0.6-0.4,1-1,1h-32.1c-0.6,0-1-0.4-1-1v-13
	C108.5,117,108.9,116.5,109.5,116.5z M109.5,140.6h32.1c0.6,0,1,0.4,1,1v13c0,0.6-0.4,1-1,1h-32.1c-0.6,0-1-0.4-1-1v-13
	C108.5,141.1,108.9,140.6,109.5,140.6z"/>
<path class="st0" d="M109.6,0c-0.4,0-0.9,0-1.4,0C107.6,0,107,0,106.4,0L75.8,5.7L5.7,18.6C5,18.7,4.3,19,3.6,19.3
	c-1.9,0.9-3.2,2.6-3.7,4.6c-0.1,0.6-0.1,1.2,0,1.9v147.4c0,0.2,0,0.4,0,0.6c0.1,1.3,0.6,2.6,1.4,3.7l0.6,0.8
	c0.1,0.1,0.2,0.2,0.4,0.4c0.3,0.4,0.7,0.6,1.2,0.9l0.9,0.5c0.5,0.2,1,0.4,1.6,0.5L60,190.9l46.3,9.1h1.7c3.7-0.2,6.7-3,7.1-6.7
	c0-0.2,0-0.5,0-0.8V7.3C115.1,3.9,112.8,0.9,109.6,0L109.6,0z M81,138.6l-15.4-0.9c-1.3,0-1.5-0.8-1.8-1.7
	c-3.1-8.1-6.2-16.3-9.3-24.4c0-0.6-0.5-1.1-0.8-2c-1.7,4.2-3.4,8.1-5,11.9l-5.7,13.5c-0.2,0.9-1.1,1.5-2.1,1.3
	c-4-0.3-7.9-0.6-11.9-0.6c-1.7,0-1.8-0.4-1.1-1.9c5.4-10.6,10.6-21.2,16-31.7c0.8-1.4,0.8-3,0-4.4c-5-10.5-9.7-20.5-14.7-31.1
	c-1-2-0.4-2.3,4.5-2.6l7.9-0.6c1.9,0,2.2,0,2.6,1.4c2.9,7.8,6,15.7,9,23.5c0,0.5,0.4,1,0.7,1.7c3.4-7.8,7.3-17,10.4-24.6
	c1.4-3.5,1.8-3.6,5-3.7c3.2-0.1,7.5,0,10-0.4c0.5,0,1,0,1.3,0.4c0.3,0.4,0,0.8,0,1.3c-5.6,11.3-11.1,22.7-16.7,34
	c-0.8,1.4-0.8,3.2,0,4.6c5.3,10.7,15.5,31.7,17.7,36.2c0.2,0.2,0.1,0.6-0.2,0.8C81.3,138.6,81.1,138.6,81,138.6z"/>
</svg>
