<?xml version="1.0" encoding="UTF-8"?>
<svg width="20px" height="20px" viewBox="0 0 20 20" version="1.1" xmlns="http://www.w3.org/2000/svg" xmlns:xlink="http://www.w3.org/1999/xlink">
    <!-- Generator: Sketch 50.2 (55047) - http://www.bohemiancoding.com/sketch -->
    <title>下载havor</title>
    <desc>Created with Sketch.</desc>
    <defs></defs>
    <g id="控件" stroke="none" stroke-width="1" fill="none" fill-rule="evenodd">
        <g id="下载havor">
            <g id="下载(1)">
                <circle id="Oval" fill="#1C6FBC" cx="10" cy="10" r="10"></circle>
                <path d="M10,11.2666667 C9.63333334,11.2666667 9.33333334,10.9666667 9.33333334,10.6 L9.33333334,5.93333334 C9.33333334,5.56666668 9.63333334,5.26666668 10,5.26666666 C10.3666667,5.26666664 10.6666667,5.56666666 10.6666667,5.93333334 L10.6666667,10.6 C10.6666667,10.9666667 10.3666667,11.2666667 10,11.2666667 Z" id="Shape" fill="#FFFFFF" fill-rule="nonzero"></path>
                <path d="M10.4666667,12.0666667 C10.2,12.3333333 9.76666666,12.3333333 9.53333334,12.0666667 L7.16666666,9.7 C6.9,9.43333334 6.9,9 7.16666666,8.76666666 C7.43333332,8.5 7.86666666,8.5 8.1,8.76666666 L10.4666667,11.1333333 C10.7333333,11.4 10.7333333,11.8333333 10.4666667,12.0666667 Z" id="Shape" fill="#FFFFFF" fill-rule="nonzero"></path>
                <path d="M9.53333334,12.0666667 C9.26666668,11.8 9.26666668,11.3666667 9.53333334,11.1333333 L11.9,8.76666666 C12.1666667,8.5 12.6,8.5 12.8333333,8.76666666 C13.1,9.03333332 13.1,9.46666666 12.8333333,9.7 L10.4666667,12.0666667 C10.2,12.3333333 9.8,12.3333333 9.53333334,12.0666667 Z M5.66666666,14.2666667 C5.3,14.2666667 5,13.9666667 5,13.6 L5,11.2666667 C5,10.9 5.3,10.6 5.66666666,10.6 C6.03333332,10.6 6.33333332,10.9 6.33333334,11.2666667 L6.33333334,13.6 C6.33333334,13.9666667 6.03333334,14.2666667 5.66666666,14.2666667 Z M14.3333333,14.2666667 C13.9666667,14.2666667 13.6666667,13.9666667 13.6666667,13.6 L13.6666667,11.2666667 C13.6666667,10.9 13.9666667,10.6 14.3333333,10.6 C14.7,10.6 15,10.9 15,11.2666667 L15,13.6 C15,13.9666667 14.7,14.2666667 14.3333333,14.2666667 Z" id="Shape" fill="#FFFFFF" fill-rule="nonzero"></path>
                <path d="M15,13.6666667 C15,14.0333333 14.7,14.3333333 14.3333333,14.3333333 L5.66666666,14.3333333 C5.3,14.3333333 5,14.0333333 5,13.6666667 C5,13.3 5.3,13 5.66666666,13 L14.3333333,13 C14.7,13 15,13.3 15,13.6666667 Z" id="Shape" fill="#FFFFFF" fill-rule="nonzero"></path>
            </g>
        </g>
    </g>
</svg>